<svg id="freepik--Charger--inject-2" xmlns="http://www.w3.org/2000/svg" width="36.804" height="169.665" viewBox="0 0 36.804 169.665">
  <rect id="Rectangle_202" data-name="Rectangle 202" width="27.065" height="167.602" transform="translate(0 2.063)" fill="#263238"/>
  <rect id="Rectangle_203" data-name="Rectangle 203" width="32.179" height="2.063" transform="translate(2.319 0)" fill="#263238"/>
  <rect id="Rectangle_204" data-name="Rectangle 204" width="7.426" height="2.063" transform="translate(27.071 0)" opacity="0.4" style="mix-blend-mode: normal;isolation: isolate"/>
  <path id="Path_12706" data-name="Path 12706" d="M355.791,184.979h-4.554l3.98-6.489h-5l-3.343,9.176h4.154l-2.531,8.287Z" transform="translate(-337.795 -168.067)" fill="#66efea"/>
  <ellipse id="Ellipse_51" data-name="Ellipse 51" cx="5.687" cy="5.859" rx="5.687" ry="5.859" transform="translate(7.848 102.107)" opacity="0.4" style="mix-blend-mode: normal;isolation: isolate"/>
  <rect id="Rectangle_205" data-name="Rectangle 205" width="20.315" height="42.29" transform="translate(3.382 55.221)" fill="#8795ad" opacity="0.5" style="mix-blend-mode: normal;isolation: isolate"/>
  <path id="Path_12708" data-name="Path 12708" d="M338.02,246.01V288.3l7.278-36.405Z" transform="translate(-334.645 -190.788)" fill="#8795ad" opacity="0.5" style="mix-blend-mode: normal;isolation: isolate"/>
  <path id="Path_12709" data-name="Path 12709" d="M357.16,266.453l.412-2.063h-5.546l-.412,2.063h-2.145l-3.929,19.652h9.887l3.929-19.652Z" transform="translate(-337.321 -196.974)" fill="#2c3e3f"/>
  <path id="Path_12710" data-name="Path 12710" d="M357.63,277.435l-2.022,10.125a1.5,1.5,0,0,1-1.462,1.227h-4.934a.909.909,0,0,1-.9-.915.988.988,0,0,1,.02-.2l2.022-10.125a1.5,1.5,0,0,1,1.462-1.227h4.934a.909.909,0,0,1,.9.915A.988.988,0,0,1,357.63,277.435Z" transform="translate(-338.307 -200.988)" fill="#76cc7a" opacity="0.75" style="mix-blend-mode: normal;isolation: isolate"/>
  <path id="Path_12711" data-name="Path 12711" d="M338.02,246.007,358.335,246v5.892H345.3Z" transform="translate(-334.645 -190.785)" fill="#263238" opacity="0.4" style="mix-blend-mode: normal;isolation: isolate"/>
  <rect id="Rectangle_206" data-name="Rectangle 206" width="9.739" height="167.602" transform="translate(27.065 2.063)" fill="#263238"/>
  <rect id="Rectangle_207" data-name="Rectangle 207" width="9.739" height="167.602" transform="translate(27.065 2.063)" opacity="0.4" style="mix-blend-mode: normal;isolation: isolate"/>
</svg>
