<svg id="Ampere" xmlns="http://www.w3.org/2000/svg" width="19" height="19" viewBox="0 0 19 19">
  <g id="routing-2">
    <g id="Group_7782" data-name="Group 7782" transform="translate(-101.583 -7.053)">
      <path id="Path_13589" data-name="Path 13589" d="M118.445,9.547a1.316,1.316,0,0,0-2.246.93V11.7a1.316,1.316,0,0,0,.768,1.2v10.9h-9.04V20.058h.819v2.183a.773.773,0,0,0,.773.773h4.466a.772.772,0,0,0,.773-.773V12.9a1.316,1.316,0,0,0,.768-1.2V10.477a1.317,1.317,0,0,0-1.306-1.316,1.338,1.338,0,0,0-1.326,1.339v1.2h0a1.317,1.317,0,0,0,.767,1.2v9.022h-3.819V20.058h1.369a.916.916,0,0,0,.916-.916V8.709a.916.916,0,0,0-.916-.916h-6.955a.916.916,0,0,0-.916.916V19.142a.917.917,0,0,0,.916.916h2.574v4.058a.772.772,0,0,0,.773.773h9.688a.773.773,0,0,0,.773-.773V12.9a1.316,1.316,0,0,0,.768-1.2V10.477a1.31,1.31,0,0,0-.385-.93Zm-9.883.3a.54.54,0,0,1,.384-.159h1.78a.543.543,0,0,1,0,1.086h-1.78a.543.543,0,0,1-.384-.927Zm-4.365.384a.543.543,0,0,1,.543-.543h1.78a.543.543,0,0,1,0,1.086h-1.78a.543.543,0,0,1-.543-.543Zm1.245,6.173a2.291,2.291,0,1,1,.671,1.621,2.292,2.292,0,0,1-.671-1.621Z" transform="translate(0)" fill="#4bb3fd"/>
      <path id="Path_13590" data-name="Path 13590" d="M211.535,249.381l-.968.968a.548.548,0,0,0,.775.775l.968-.968a.548.548,0,0,0-.775-.775Z" transform="translate(-103.706 -233.847)" fill="#4bb3fd"/>
    </g>
    <path id="Vector" d="M0,0H19V19H0Z" transform="translate(19 19) rotate(180)" fill="none" opacity="0"/>
  </g>
</svg>
