<!DOCTYPE svg PUBLIC "-//W3C//DTD SVG 1.1//EN" "http://www.w3.org/Graphics/SVG/1.1/DTD/svg11.dtd">
<!-- Uploaded to: SVG Repo, www.svgrepo.com, Transformed by: SVG Repo Mixer Tools -->
<svg height="800px" width="800px" version="1.1" id="Capa_1" xmlns="http://www.w3.org/2000/svg" xmlns:xlink="http://www.w3.org/1999/xlink" viewBox="0 0 448.762 448.762" xml:space="preserve" fill="#4BB3FD">
<g id="SVGRepo_bgCarrier" stroke-width="0"/>
<g id="SVGRepo_tracerCarrier" stroke-linecap="round" stroke-linejoin="round"/>
<g id="SVGRepo_iconCarrier"> <g> <path style="fill:#4BB3FD;" d="M429.351,159.657H401.17v-16.241c0-21.427-17.371-38.798-38.781-38.798H38.798 C17.355,104.619,0,121.99,0,143.417V305.37c0,21.403,17.363,38.773,38.798,38.773h323.599c21.411,0,38.781-17.371,38.781-38.773 v-16.972h28.182c10.705,0,19.403-8.706,19.403-19.411v-89.959C448.754,168.331,440.057,159.657,429.351,159.657z M362.396,305.362 H38.798V143.417h323.599V305.362z"/> <path style="fill:#4BB3FD;" d="M84.968,276.262h6.649c8.974,0,16.257-7.283,16.257-16.257V188.75 c0-8.982-7.283-16.257-16.257-16.257h-6.649c-8.982,0-16.257,7.275-16.257,16.257v71.255 C68.711,268.979,75.986,276.262,84.968,276.262z"/> <path style="fill:#4BB3FD;" d="M157.637,276.262h6.649c8.974,0,16.257-7.283,16.257-16.257V188.75 c0-8.982-7.283-16.257-16.257-16.257h-6.649c-8.974,0-16.257,7.275-16.257,16.257v71.255 C141.38,268.979,148.663,276.262,157.637,276.262z"/> <path style="fill:#4BB3FD;" d="M230.339,276.262h6.609c8.974,0,16.257-7.283,16.257-16.257V188.75 c0-8.982-7.283-16.257-16.257-16.257h-6.609c-8.974,0-16.257,7.275-16.257,16.257v71.255 C214.082,268.979,221.357,276.262,230.339,276.262z"/> </g> </g>
</svg>