<svg xmlns="http://www.w3.org/2000/svg" width="44" height="44" viewBox="0 0 44 44">
  <g id="Group_7793" data-name="Group 7793" transform="translate(-164 -382)">
    <circle id="Ellipse_1625" data-name="Ellipse 1625" cx="22" cy="22" r="22" transform="translate(164 382)" fill="#272c38"/>
    <g id="vuesax_bold_medal-star" data-name="vuesax/bold/medal-star" transform="translate(169.466 387.466)">
      <g id="medal-star">
        <path id="Vector" d="M0,0H32.794V32.794H0Z" fill="none" opacity="0"/>
        <path id="Vector-2" data-name="Vector" d="M10.374,5.809l-2.255.533A1.341,1.341,0,0,0,7.108,7.353L6.63,9.362a1.369,1.369,0,0,1-2.378.574L.167,5.235A.681.681,0,0,1,.508,4.128,11.6,11.6,0,0,0,6.7.261.682.682,0,0,1,7.709.193l3.033,3.033C11.781,4.265,11.412,5.563,10.374,5.809Z" transform="translate(18.663 19.429)" fill="#ffb4a8"/>
        <path id="Vector-3" data-name="Vector" d="M.987,5.809l2.255.533A1.341,1.341,0,0,1,4.253,7.353l.478,2.009a1.369,1.369,0,0,0,2.378.574l4.086-4.7a.681.681,0,0,0-.342-1.107A11.6,11.6,0,0,1,4.663.261.682.682,0,0,0,3.652.193L.618,3.227C-.42,4.265-.051,5.563.987,5.809Z" transform="translate(2.702 19.429)" fill="#ffb4a8"/>
        <path id="Vector-4" data-name="Vector" d="M9.565,0A9.555,9.555,0,0,0,8.13,19.007a8.431,8.431,0,0,0,2.869,0A9.557,9.557,0,0,0,9.565,0Zm4.181,9.264L12.612,10.4a.968.968,0,0,0-.232.834l.328,1.407c.26,1.107-.328,1.544-1.312.956L10.03,12.79a.958.958,0,0,0-.9,0L7.761,13.6c-.984.574-1.571.15-1.312-.956l.328-1.407a1.026,1.026,0,0,0-.232-.834L5.384,9.264c-.67-.67-.451-1.339.478-1.489l1.462-.246a1,1,0,0,0,.642-.478l.806-1.612c.437-.875,1.148-.875,1.585,0l.806,1.612a.99.99,0,0,0,.656.478l1.462.246C14.2,7.925,14.416,8.595,13.746,9.264Z" transform="translate(6.832 2.733)" fill="#ffb4a8"/>
      </g>
    </g>
  </g>
</svg>
