<svg id="vuesax_linear_tag" data-name="vuesax/linear/tag" xmlns="http://www.w3.org/2000/svg" width="19" height="19" viewBox="0 0 19 19">
  <g id="tag">
    <path id="Vector" d="M13.51,9.917,9.924,13.5a3.784,3.784,0,0,1-5.344,0L1.1,10.028a3.784,3.784,0,0,1,0-5.344L4.7,1.105a3.761,3.761,0,0,1,2.85-1.1L11.507.2A3.059,3.059,0,0,1,14.428,3.1l.19,3.958A3.8,3.8,0,0,1,13.51,9.917Z" transform="translate(2.189 2.196)" fill="#4bb3fd"/>
    <path id="Vector-2" data-name="Vector" d="M0,1.979A1.979,1.979,0,1,0,1.979,0,1.979,1.979,0,0,0,0,1.979Z" transform="translate(9.5 5.542)" fill="#fff"/>
    <path id="Vector-3" data-name="Vector" d="M19,0H0V19H19Z" fill="#4bb3fd" opacity="0"/>
  </g>
</svg>
