<svg xmlns="http://www.w3.org/2000/svg" width="15.004" height="15.004" viewBox="0 0 15.004 15.004">
  <g id="vuesax_bold_trash" data-name="vuesax/bold/trash" transform="translate(-108 -188)">
    <g id="trash" transform="translate(108 188)">
      <path id="Vector" d="M11.768,2.488c-1.007-.1-2.013-.175-3.026-.231V2.251L8.6,1.438C8.511.863,8.373,0,6.911,0H5.273C3.816,0,3.678.825,3.578,1.432l-.131.8c-.581.038-1.163.075-1.744.131L.427,2.488a.468.468,0,1,0,.088.932L1.79,3.295a49.845,49.845,0,0,1,9.89.131h.05A.474.474,0,0,0,12.2,3,.479.479,0,0,0,11.768,2.488Z" transform="translate(1.404 0.781)" fill="#ff3131"/>
      <path id="Vector-2" data-name="Vector" d="M9.254.244A.79.79,0,0,0,8.685,0H.783A.78.78,0,0,0,.214.244.805.805,0,0,0,0,.831L.389,7.246c.069.95.156,2.138,2.338,2.138H6.741c2.182,0,2.269-1.182,2.338-2.138L9.467.838A.811.811,0,0,0,9.254.244ZM5.772,6.252H3.69a.469.469,0,0,1,0-.938H5.772a.469.469,0,0,1,0,.938Zm.525-2.5H3.171a.469.469,0,0,1,0-.938H6.3a.469.469,0,1,1,0,.938Z" transform="translate(2.768 4.845)" fill="#ff3131"/>
      <path id="Vector-3" data-name="Vector" d="M0,0H15V15H0Z" transform="translate(15.004 15.004) rotate(180)" fill="none" opacity="0"/>
    </g>
  </g>
</svg>
