<svg xmlns="http://www.w3.org/2000/svg" width="15" height="15.004" viewBox="0 0 15 15.004">
  <g id="Group" transform="translate(-507.171 -203.167)">
    <path id="Vector" d="M8.883,1.26,1.1,9.046a2.71,2.71,0,0,0-.66,1.3L.02,13.312a1.4,1.4,0,0,0,1.671,1.671l2.969-.418a2.616,2.616,0,0,0,1.3-.66l7.785-7.785c1.342-1.342,1.979-2.9,0-4.882C11.786-.719,10.225-.081,8.883,1.26Z" transform="translate(507.171 203.167)" fill="#4bb3fd"/>
    <path id="Vector-2" data-name="Vector" d="M0,0A6.685,6.685,0,0,0,4.659,4.659" transform="translate(515.104 205.601)" fill="#4bb3fd"/>
  </g>
</svg>
