<svg xmlns="http://www.w3.org/2000/svg" width="49" height="49" viewBox="0 0 49 49">
  <g id="Group_7658" data-name="Group 7658" transform="translate(73 83)">
    <path id="Path_13535" data-name="Path 13535" d="M10.336,0H38.664A10.336,10.336,0,0,1,49,10.336V38.664A10.336,10.336,0,0,1,38.664,49H10.336A10.336,10.336,0,0,1,0,38.664V10.336A10.336,10.336,0,0,1,10.336,0Z" transform="translate(-73 -83)" fill="#fff"/>
    <g id="Group_7444" data-name="Group 7444" transform="translate(-68.119 -70.271)">
      <g id="Group_7438" data-name="Group 7438">
        <path id="Path_13335" data-name="Path 13335" d="M9.117,72.522a7.18,7.18,0,0,1-.333-2.814,6.617,6.617,0,0,1,.3-1.462A4.757,4.757,0,0,1,9.8,66.895a3.943,3.943,0,0,1,.574-.537,6.554,6.554,0,0,1,.629-.444,6.746,6.746,0,0,1,1.407-.611c.241-.074.481-.13.74-.185a3.378,3.378,0,0,1,.74-.093,7.714,7.714,0,0,1,1.462,0,22.271,22.271,0,0,0,2.721-.019,16.314,16.314,0,0,0,2.666-.426,11.542,11.542,0,0,0,2.5-.926l.611-.333c.222-.111.426-.222.629-.333a8.507,8.507,0,0,1,1.333-.574,4.439,4.439,0,0,1,.7-.222c.222-.056.463-.148.7-.185.463-.111.944-.222,1.407-.3a16.525,16.525,0,0,1,2.869-.241,17.113,17.113,0,0,1,5.646.926,17.5,17.5,0,0,1,2.647,1.129c.222.111.426.222.629.333l.611.333.611.333a5.184,5.184,0,0,1,.592.37c.389.259.777.5,1.166.759l.148.093a1.106,1.106,0,0,0,.148.074l.148.074.074.037.037.019.019.019h0a.081.081,0,0,0,.056.019l.093.019a.9.9,0,0,1,.2.074.975.975,0,0,1,.37.3,1.024,1.024,0,0,1,.185.407,3.047,3.047,0,0,1,.037.389,3.244,3.244,0,0,1-.093.74,8.1,8.1,0,0,1-.463,1.333,7.152,7.152,0,0,0,.185-1.37,2.655,2.655,0,0,0-.019-.666.9.9,0,0,0-.222-.5.353.353,0,0,0-.185-.093.275.275,0,0,0-.13-.018l-.074-.019a.655.655,0,0,0-.111-.019l-.185-.056-.185-.056c-.056-.019-.13-.037-.185-.056l-.093-.037-.093-.037c-.426-.185-.851-.37-1.3-.555a6.535,6.535,0,0,1-.629-.3c-.2-.111-.407-.241-.611-.352l-.611-.333c-.2-.111-.407-.222-.592-.333a14.87,14.87,0,0,0-2.5-1.055,16.256,16.256,0,0,0-5.331-.87c-.463,0-.889.019-1.351.056a10.5,10.5,0,0,0-1.333.185c-.444.093-.889.167-1.333.278-.222.056-.426.111-.648.185a6.307,6.307,0,0,0-.629.222,10.2,10.2,0,0,0-1.222.537,6,6,0,0,0-.592.315l-.611.333a12.21,12.21,0,0,1-2.74,1.018,18.628,18.628,0,0,1-2.851.444,20.93,20.93,0,0,1-2.851.019,10.376,10.376,0,0,0-1.314,0,7.2,7.2,0,0,0-1.259.241,4.716,4.716,0,0,0-1.166.5,2.421,2.421,0,0,0-.5.352c-.148.148-.3.3-.444.426a4.541,4.541,0,0,0-.777.981,4.426,4.426,0,0,0-.481,1.222,8.008,8.008,0,0,0-.222,1.333A4.65,4.65,0,0,0,9.117,72.522Z" transform="translate(-8.762 -61.233)" fill="#76cc7a"/>
        <path id="Path_13336" data-name="Path 13336" d="M602.192,57.305a3.468,3.468,0,0,1-2.851,4.054,5.858,5.858,0,0,1,1.888-3.165s-1.685.019-2.684,2.554c0,0-.7-1.777-1.536-1.759a6.552,6.552,0,0,1,.981,1.7,2.157,2.157,0,0,1-1.629-2.221,2.1,2.1,0,0,1,2.036,1.166A3.618,3.618,0,0,1,602.192,57.305Z" transform="translate(-563.001 -57.289)" fill="#76cc7a"/>
      </g>
      <g id="Group_7443" data-name="Group 7443" transform="translate(6.698 11.289)">
        <g id="Group_7442" data-name="Group 7442" transform="translate(0 0)">
          <path id="Path_13342" data-name="Path 13342" d="M188.9,196.469l-1.894,3.193,2.218.047-4.907,5.231,2.2-3.887h-2.384l2.314-4.583H179.3l5.323,12.175h2.222l5.324-12.175Z" transform="translate(-166.46 -196.422)" fill="#fabb3d"/>
          <g id="Group_7441" data-name="Group 7441">
            <rect id="Rectangle_19169" data-name="Rectangle 19169" width="5.972" height="1.445" transform="translate(6.037 5.365)" fill="#fabb3d"/>
            <g id="Group_7440" data-name="Group 7440" transform="translate(4.272)">
              <path id="Rectangle_19170" data-name="Rectangle 19170" d="M0,0H5.678A1.389,1.389,0,0,1,7.067,1.389v0A1.389,1.389,0,0,1,5.678,2.777H0a0,0,0,0,1,0,0V0A0,0,0,0,1,0,0Z" fill="#fabb3d"/>
              <rect id="Rectangle_19171" data-name="Rectangle 19171" width="7.786" height="1.583" transform="translate(0 5.296)" fill="#fabb3d"/>
              <path id="Rectangle_19172" data-name="Rectangle 19172" d="M0,0H5.678A1.389,1.389,0,0,1,7.067,1.389v0A1.389,1.389,0,0,1,5.678,2.777H0a0,0,0,0,1,0,0V0A0,0,0,0,1,0,0Z" transform="translate(0 9.398)" fill="#fabb3d"/>
            </g>
            <path id="Rectangle_19173" data-name="Rectangle 19173" d="M2.88,0h0a0,0,0,0,1,0,0V12.175a0,0,0,0,1,0,0h0A2.88,2.88,0,0,1,0,9.3V2.88A2.88,2.88,0,0,1,2.88,0Z" fill="#fabb3d"/>
          </g>
        </g>
      </g>
    </g>
  </g>
</svg>
