<svg id="vuesax_linear_tag" data-name="vuesax/linear/tag" xmlns="http://www.w3.org/2000/svg" width="19" height="19" viewBox="0 0 19 19">
  <g id="Group_7536" data-name="Group 7536" transform="translate(0 3.354)">
    <path id="Path_13445" data-name="Path 13445" d="M135.12,378.93v1.042a.514.514,0,0,0,.514.514H137.3a.514.514,0,0,0,.514-.514V379.3a19.024,19.024,0,0,1-2.465-.31c-.08-.018-.153-.04-.225-.063Z" transform="translate(-132.938 -369.414)" fill="#4bb3fd"/>
    <path id="Path_13446" data-name="Path 13446" d="M83,106.418c-.305,0-.419-.73-.21-.921a5.745,5.745,0,0,1,1.92-.664.322.322,0,0,1,.2.138,7.149,7.149,0,0,1,.656-.341,3.858,3.858,0,0,1,1.793-1.009.485.485,0,0,0,.034-.173c0-.627-.7-.728-1.279-.7a.935.935,0,0,0-.7.44c-.445-1.141-1.312-3.012-2.29-3.234a17.214,17.214,0,0,0-7.815,0c-.978.221-1.845,2.093-2.288,3.234a.939.939,0,0,0-.7-.44c-.576-.024-1.279.076-1.279.7,0,.469.716.8,1.077.933a3.945,3.945,0,0,0,0,2.17c.154.859.406,1.691,1.47,1.931a38.442,38.442,0,0,0,5.635.436c.313,0,1.414-.024,2.616-.1a7.863,7.863,0,0,1,1.363-2.4H83Zm-7.577,0H73.559c-.8,0-.19-1.567.153-1.585a5.752,5.752,0,0,1,1.92.664c.209.191.1.921-.21.921Zm5.452,1.156a.216.216,0,0,1-.216.216H77.763a.216.216,0,0,1-.216-.216v-.326a.216.216,0,0,1,.216-.215h2.893a.216.216,0,0,1,.216.215Zm-1.663-4.628a38.618,38.618,0,0,0-5.293.464c.508-1.255,1.2-2.472,1.589-2.562a16.311,16.311,0,0,1,7.407,0c.4.091,1.078,1.292,1.59,2.562a38.632,38.632,0,0,0-5.294-.464Z" transform="translate(-71.033 -99.501)" fill="#4bb3fd"/>
    <path id="Path_13447" data-name="Path 13447" d="M396.722,241.473c-.157-.318-.942-1.986-1.2-2.325a1.818,1.818,0,0,0-.728-.509v-.881a2.945,2.945,0,0,0-1.59.925c-4.057,1.727-4.07,6.659-4.07,6.659h5.26c-1.508-2.46-.524-3.563-.524-3.563a1.969,1.969,0,0,0,1.465,1.113s.717.539,1.125.432a1.091,1.091,0,0,0,.841-1.059c0-.26-.576-.791-.576-.791Zm-1.33-.772c-.139.147-.467.06-.73-.193s-.361-.576-.221-.722.467-.06.73.193S395.533,240.556,395.392,240.7Z" transform="translate(-378.297 -233.049)" fill="#4bb3fd"/>
  </g>
  <path id="Vector" d="M19,0H0V19H19Z" fill="#4bb3fd" opacity="0"/>
</svg>
