<svg id="Group_7541" data-name="Group 7541" xmlns="http://www.w3.org/2000/svg" width="19" height="19" viewBox="0 0 19 19">
  <g id="Group_7540" data-name="Group 7540" transform="translate(0 2)">
    <path id="Path_13448" data-name="Path 13448" d="M163.956,133.247a1.388,1.388,0,0,0-1.362-1.084h-1.081a.313.313,0,0,0-.313.312v1.688h-.81v-.951a1.042,1.042,0,0,0-1.042-1.042h-.737a.427.427,0,0,1-.31-.136l-.857-.909h0a1.042,1.042,0,0,0-.766-.331H155.67v-.617h.62a.312.312,0,0,0,.313-.312v-1.089a.312.312,0,0,0-.313-.313h-5.064a.313.313,0,0,0-.313.313v1.089a.313.313,0,0,0,.313.313h.62v.61h-1.008a1.042,1.042,0,0,0-.763.331l-.86.909a.427.427,0,0,1-.31.136h-.727a1.042,1.042,0,0,0-1.042,1.042v2.746h-.917v-3.233a.309.309,0,0,0-.091-.221l-.326-.326a.31.31,0,0,0-.44,0,.315.315,0,0,0,0,.443l.234.234v6.958a.315.315,0,0,0,.091.221l.321.321a.312.312,0,1,0,.443-.44l-.232-.227v-3.105h.907v2.6a1.042,1.042,0,0,0,1.042,1.042h1.823a.409.409,0,0,1,.245.078l2.915,2.048a1.043,1.043,0,0,0,.6.19h5.582a1.042,1.042,0,0,0,1.042-1.042v-2.782h.81v1.691h0a.312.312,0,0,0,.313.313h1.081a1.391,1.391,0,0,0,1.362-1.086,16.062,16.062,0,0,0,.011-6.384Z" transform="translate(-145.271 -128.464)" fill="#4bb3fd"/>
    <path id="Path_13449" data-name="Path 13449" d="M270.395,228.93a3.225,3.225,0,1,0,2.277.944,3.221,3.221,0,0,0-2.277-.944Zm-2.6,3.22a2.605,2.605,0,0,1,3.355-2.485l-2.053,2.652a.086.086,0,0,0,.068.136h.9a.086.086,0,0,1,.076.122l-.907,1.894a2.6,2.6,0,0,1-1.427-2.318Zm2.6,2.6a2.581,2.581,0,0,1-.9-.162l2.264-2.767a.083.083,0,0,0-.065-.138h-.961a.086.086,0,0,1-.078-.12l.758-1.823a2.61,2.61,0,0,1-1.019,5Z" transform="translate(-261.504 -224.257)" fill="#fff"/>
  </g>
  <path id="Vector" d="M0,0H19V19H0Z" transform="translate(19 19) rotate(180)" fill="#fff" opacity="0"/>
</svg>
