<svg xmlns="http://www.w3.org/2000/svg" width="19" height="19" viewBox="0 0 19 19">
  <g id="vuesax_bold_global" data-name="vuesax/bold/global" transform="translate(-172 -252)">
    <path id="Vector" d="M3.634,3.618c-.024,0-.055.016-.079.016A7.921,7.921,0,0,1,0,.079C0,.055.016.024.016,0A25.248,25.248,0,0,0,2.969.665,26.559,26.559,0,0,0,3.634,3.618Z" transform="translate(174.423 264.936)" fill="#4bb3fd"/>
    <path id="Vector-2" data-name="Vector" d="M3.681.087A7.991,7.991,0,0,1,0,3.705,24.2,24.2,0,0,0,.72.665,24.764,24.764,0,0,0,3.665,0C3.657.032,3.681.063,3.681.087Z" transform="translate(184.896 264.936)" fill="#4bb3fd"/>
    <path id="Vector-3" data-name="Vector" d="M3.745,3.745A25.051,25.051,0,0,0,.72,3.024,22.1,22.1,0,0,0,0,0,7.958,7.958,0,0,1,3.745,3.745Z" transform="translate(184.896 254.359)" fill="#4bb3fd"/>
    <path id="Vector-4" data-name="Vector" d="M3.7.024A24.738,24.738,0,0,0,3.04,2.969,22.855,22.855,0,0,0,0,3.681,7.991,7.991,0,0,1,3.618,0C3.642,0,3.673.024,3.7.024Z" transform="translate(174.359 254.423)" fill="#4bb3fd"/>
    <path id="Vector-5" data-name="Vector" d="M5.526,3.634A24.8,24.8,0,0,0,0,3.634,22.462,22.462,0,0,1,.807.42,1.3,1.3,0,0,0,.823.245,8.238,8.238,0,0,1,2.763,0,8.171,8.171,0,0,1,4.695.245,1.315,1.315,0,0,0,4.718.42,22.73,22.73,0,0,1,5.526,3.634Z" transform="translate(178.737 253.583)" fill="#4bb3fd"/>
    <path id="Vector-6" data-name="Vector" d="M3.634,5.526A22.2,22.2,0,0,1,.42,4.718,1.3,1.3,0,0,0,.245,4.7,8.238,8.238,0,0,1,0,2.763,8.171,8.171,0,0,1,.245.831,1.314,1.314,0,0,0,.42.807,23.568,23.568,0,0,1,3.634,0,25.788,25.788,0,0,0,3.634,5.526Z" transform="translate(173.583 258.737)" fill="#4bb3fd"/>
    <path id="Vector-7" data-name="Vector" d="M3.634,2.763A8.238,8.238,0,0,1,3.388,4.7a1.3,1.3,0,0,0-.174.016A23.863,23.863,0,0,1,0,5.526,24.8,24.8,0,0,0,0,0,22.462,22.462,0,0,1,3.214.807a.659.659,0,0,0,.174.024A8.224,8.224,0,0,1,3.634,2.763Z" transform="translate(185.783 258.737)" fill="#4bb3fd"/>
    <path id="Vector-8" data-name="Vector" d="M5.526,0a22.2,22.2,0,0,1-.807,3.214,1.315,1.315,0,0,0-.024.174,8.171,8.171,0,0,1-1.932.245,8.238,8.238,0,0,1-1.94-.245,1.3,1.3,0,0,0-.016-.174A23.568,23.568,0,0,1,0,0,24.771,24.771,0,0,0,2.763.174,24.652,24.652,0,0,0,5.526,0Z" transform="translate(178.737 265.783)" fill="#4bb3fd"/>
    <path id="Vector-9" data-name="Vector" d="M6.146,6.146a23.781,23.781,0,0,1-5.959,0,23.781,23.781,0,0,1,0-5.959,23.781,23.781,0,0,1,5.959,0A23.781,23.781,0,0,1,6.146,6.146Z" transform="translate(178.333 258.333)" fill="#4bb3fd"/>
    <path id="Vector-10" data-name="Vector" d="M0,0H19V19H0Z" transform="translate(172 252)" fill="none" opacity="0"/>
    <path id="Vector-11" data-name="Vector" d="M0,0H19V19H0Z" transform="translate(191 271) rotate(180)" fill="none" opacity="0"/>
  </g>
</svg>
