<svg id="Phase" xmlns="http://www.w3.org/2000/svg" width="19" height="19" viewBox="0 0 19 19">
  <path id="Vector" d="M19,0H0V19H19Z" fill="#4bb3fd" opacity="0"/>
  <g id="Group_7784" data-name="Group 7784" transform="translate(-85.419 -15.363)">
    <path id="Path_13591" data-name="Path 13591" d="M94.918,16.786a8.117,8.117,0,0,0-2.733,15.761s.4.043.533-.237a.62.62,0,0,0-.182-.738,7.084,7.084,0,1,1,3.5.321h-.119a1.592,1.592,0,0,1-.377-.03.4.4,0,0,1-.051-.026.659.659,0,0,1-.071-.357V27.246a2,2,0,0,0,1.113-.615,4.214,4.214,0,0,0,.776-2.84l-.007-.079H92.5l-.007.079a4.213,4.213,0,0,0,.776,2.841,2,2,0,0,0,1.113.615v4.345a.555.555,0,0,0,.016.13,1.269,1.269,0,0,0,.636,1.05,1.832,1.832,0,0,0,.867.161h.137v.009l.059-.01h.024A.533.533,0,0,0,96.3,32.9a8.115,8.115,0,0,0-1.385-16.112Z" fill="#4bb3fd"/>
    <path id="Path_13592" data-name="Path 13592" d="M290.35,171.586v-1.332a.618.618,0,1,0-1.236,0v1.332Z" transform="translate(-196.074 -148.136)" fill="#4bb3fd"/>
    <path id="Path_13593" data-name="Path 13593" d="M371.12,171.586v-1.332a.618.618,0,1,0-1.236,0v1.332Z" transform="translate(-274.353 -148.136)" fill="#4bb3fd"/>
  </g>
</svg>
