<svg id="setting-2" xmlns="http://www.w3.org/2000/svg" width="32" height="32" viewBox="0 0 32 32">
  <path id="Vector" d="M8,4A4,4,0,1,1,4,0,4,4,0,0,1,8,4Z" transform="translate(12 12)" fill="none" stroke="#787c8c" stroke-linecap="round" stroke-linejoin="round" stroke-width="2"/>
  <path id="Vector-2" data-name="Vector" d="M0,13.759V11.412A2.541,2.541,0,0,1,2.533,8.879c2.413,0,3.4-1.707,2.187-3.8a2.532,2.532,0,0,1,.933-3.453L7.96.305a2.225,2.225,0,0,1,3.04.8l.147.253c1.2,2.093,3.173,2.093,4.387,0l.147-.253a2.225,2.225,0,0,1,3.04-.8l2.307,1.32a2.532,2.532,0,0,1,.933,3.453c-1.213,2.093-.227,3.8,2.187,3.8a2.541,2.541,0,0,1,2.533,2.533v2.347a2.541,2.541,0,0,1-2.533,2.533c-2.413,0-3.4,1.707-2.187,3.8a2.529,2.529,0,0,1-.933,3.453l-2.307,1.32a2.225,2.225,0,0,1-3.04-.8l-.147-.253c-1.2-2.093-3.173-2.093-4.387,0L11,24.065a2.225,2.225,0,0,1-3.04.8l-2.307-1.32a2.532,2.532,0,0,1-.933-3.453c1.213-2.093.227-3.8-2.187-3.8A2.541,2.541,0,0,1,0,13.759Z" transform="translate(2.667 3.415)" fill="none" stroke="#787c8c" stroke-linecap="round" stroke-linejoin="round" stroke-width="2"/>
  <path id="Vector-3" data-name="Vector" d="M0,0H32V32H0Z" fill="none" opacity="0"/>
</svg>
