<svg xmlns="http://www.w3.org/2000/svg" width="16" height="16" viewBox="0 0 16 16">
  <g id="vuesax_bold_shop" data-name="vuesax/bold/shop" transform="translate(-172 -252)">
    <g id="shop" transform="translate(172 252)">
      <path id="Vector" d="M13.86,4.68l-.193-1.847C13.386.82,12.473,0,10.52,0H3.346C1.386,0,.48.82.193,2.853L.013,4.687A2.74,2.74,0,0,0,.56,6.633,2.673,2.673,0,0,0,2.713,7.667,2.729,2.729,0,0,0,4.866,6.573a2.543,2.543,0,0,0,4.16.027A2.733,2.733,0,0,0,11.16,7.667,2.655,2.655,0,0,0,13.346,6.58,2.715,2.715,0,0,0,13.86,4.68Z" transform="translate(1.047 0.833)" fill="#76cc7a"/>
      <path id="Vector-2" data-name="Vector" d="M1.487.023A1.663,1.663,0,0,0,0,1.683V3.51a.327.327,0,0,0,.327.327h3.18a.327.327,0,0,0,.327-.327V1.917C3.84.523,3.02-.137,1.487.023Z" transform="translate(6.08 11.083)" fill="#76cc7a"/>
      <path id="Vector-3" data-name="Vector" d="M12.493,1.213V3.2A3.335,3.335,0,0,1,9.16,6.533a.327.327,0,0,1-.327-.327V4.613A2.527,2.527,0,0,0,8.067,2.64,2.587,2.587,0,0,0,6.26,2.033a4.569,4.569,0,0,0-.513.027A2.324,2.324,0,0,0,3.66,4.38V6.207a.327.327,0,0,1-.327.327A3.335,3.335,0,0,1,0,3.2V1.227A.667.667,0,0,1,.893.6,3.114,3.114,0,0,0,1.44.733,1.55,1.55,0,0,0,1.687.76a2.578,2.578,0,0,0,.32.02A3.387,3.387,0,0,0,4.14,0,3.235,3.235,0,0,0,6.247.78a3.192,3.192,0,0,0,2.1-.767A3.368,3.368,0,0,0,10.453.78a3.052,3.052,0,0,0,.353-.02c.08-.007.153-.013.227-.027a3.212,3.212,0,0,0,.58-.147A.664.664,0,0,1,12.493,1.213Z" transform="translate(1.753 8.387)" fill="#76cc7a"/>
      <path id="Vector-4" data-name="Vector" d="M0,0H16V16H0Z" transform="translate(16 16) rotate(180)" fill="none" opacity="0"/>
    </g>
  </g>
</svg>
