<svg xmlns="http://www.w3.org/2000/svg" width="44" height="44" viewBox="0 0 44 44">
  <g id="Group_7796" data-name="Group 7796" transform="translate(-164 -382)">
    <circle id="Ellipse_1625" data-name="Ellipse 1625" cx="22" cy="22" r="22" transform="translate(164 382)" fill="#272c38"/>
    <g id="vuesax_bold_eye" data-name="vuesax/bold/eye" transform="translate(62 200)">
      <path id="Vector" d="M25.56,7.563C22.493,2.763,18,0,13.278,0A12.9,12.9,0,0,0,6.519,1.97,17.692,17.692,0,0,0,1,7.563a7.6,7.6,0,0,0,0,7.523c3.067,4.813,7.555,7.563,12.282,7.563a12.9,12.9,0,0,0,6.758-1.97,17.692,17.692,0,0,0,5.524-5.593A7.6,7.6,0,0,0,25.56,7.563Zm-12.282,9.11a5.342,5.342,0,1,1,5.364-5.342A5.347,5.347,0,0,1,13.278,16.673Z" transform="translate(110.722 192.669)" fill="#76cc7a"/>
      <path id="Vector-2" data-name="Vector" d="M3.879,0A3.886,3.886,0,1,0,7.772,3.893,3.889,3.889,0,0,0,3.879,0Z" transform="translate(120.121 200.107)" fill="#76cc7a"/>
      <path id="Vector-3" data-name="Vector" d="M0,0H32V32H0Z" transform="translate(140 220) rotate(180)" fill="none" opacity="0"/>
    </g>
  </g>
</svg>
